<?xml version="1.0" encoding="UTF-8" standalone="no"?>
<!-- Created with Inkscape (http://www.inkscape.org/) -->

<svg
   width="297mm"
   height="210mm"
   viewBox="0 0 1122.5197 793.7008"
   version="1.1"
   id="svg1"
   inkscape:version="1.3.2 (091e20e, 2023-11-25, custom)"
   sodipodi:docname="logo_dmorphC.svg"
   inkscape:export-filename="logo_dmorphC.png"
   inkscape:export-xdpi="96"
   inkscape:export-ydpi="96"
   xmlns:inkscape="http://www.inkscape.org/namespaces/inkscape"
   xmlns:sodipodi="http://sodipodi.sourceforge.net/DTD/sodipodi-0.dtd"
   xmlns="http://www.w3.org/2000/svg"
   xmlns:svg="http://www.w3.org/2000/svg">
  <sodipodi:namedview
     id="namedview1"
     pagecolor="#ffffff"
     bordercolor="#000000"
     borderopacity="0.25"
     inkscape:showpageshadow="2"
     inkscape:pageopacity="0.0"
     inkscape:pagecheckerboard="0"
     inkscape:deskcolor="#d1d1d1"
     inkscape:document-units="mm"
     showguides="true"
     inkscape:zoom="0.48945419"
     inkscape:cx="852.99095"
     inkscape:cy="458.67418"
     inkscape:window-width="1920"
     inkscape:window-height="991"
     inkscape:window-x="-9"
     inkscape:window-y="-9"
     inkscape:window-maximized="1"
     inkscape:current-layer="layer1" />
  <defs
     id="defs1" />
  <g
     inkscape:label="Layer 1"
     inkscape:groupmode="layer"
     id="layer1">
    <path
       style="fill:none;stroke:#000000;stroke-width:8.18268;stroke-dasharray:none"
       d="m 635.24142,204.36495 c 0,0 21.94294,-1.99291 28.03056,9.70469 6.81565,13.09655 -5.75022,32.23541 3.1266,43.92648 6.12234,8.06333 30.40915,15.63303 30.40915,15.63303 0,0 -21.50278,2.93978 -26.50887,10.32876 -9.66285,14.26239 4.70134,35.36227 -0.83564,51.67571 -2.35649,6.94285 -6.61157,14.26052 -13.10483,17.66549 -6.38823,3.34989 -14.41466,0.77354 -21.62774,0.72234 -7.15875,-0.0508 -21.45247,-1.02154 -21.45247,-1.02154 0,0 1.49849,21.76697 6.72237,30.93587 5.7463,10.08583 25.50327,23.71244 25.50327,23.71244"
       id="path1"
       sodipodi:nodetypes="csscsaaacac" />
    <path
       style="fill:#000000;stroke:#000000;stroke-width:10.4504;stroke-dasharray:none"
       d="m 644.59558,408.83073 c -2.36474,-19.16346 -2.22964,-37.59168 6.89543,-53.37579 l -37.28643,1.27693 c 0,0 -0.34237,13.52979 1.53232,19.92015 1.41528,4.82434 4.01217,9.35249 7.15082,13.28011 5.98926,7.49479 21.70786,18.8986 21.70786,18.8986 z"
       id="path2"
       sodipodi:nodetypes="cccaac" />
    <path
       style="fill:none;stroke:#000000;stroke-width:8.03949;stroke-dasharray:none"
       d="m 480.1642,204.95263 c 0,0 -21.69073,-1.94615 -27.70838,9.47693 -6.7373,12.78919 5.68414,31.47891 -3.09066,42.89562 -6.05195,7.87409 -30.05961,15.26615 -30.05961,15.26615 0,0 21.25562,2.87078 26.20417,10.08635 9.55178,13.92767 -4.6473,34.53239 0.82604,50.46299 2.3294,6.77991 6.80497,13.52282 12.9542,17.2509 7.50409,4.54949 18.73596,3.64688 25.9761,4.2808"
       id="path3"
       sodipodi:nodetypes="csscsaac" />
    <path
       style="fill:#000000;stroke:#000000;stroke-width:12.8655;stroke-dasharray:none"
       d="M 615.05062,185.39119 513.50559,386.67462"
       id="path4" />
    <path
       style="fill:none;stroke:#000000;stroke-width:10.4504;stroke-dasharray:none"
       d="m 526.09624,248.74647 -46.48035,28.60329 45.96958,26.5602"
       id="path5" />
    <path
       style="fill:none;stroke:#000000;stroke-width:9.51065;stroke-dasharray:none"
       d="m 603.04808,246.15877 37.81015,29.12269 -37.39465,27.0425"
       id="path6" />
    <text
       xml:space="preserve"
       style="font-style:normal;font-variant:normal;font-weight:normal;font-stretch:normal;font-size:82.7924px;font-family:Consolas;-inkscape-font-specification:Consolas;fill:none;stroke:#000000;stroke-width:9.01264;stroke-dasharray:none"
       x="338.86505"
       y="523.07977"
       id="text6"
       transform="scale(1.060074,0.94333038)"><tspan
         sodipodi:role="line"
         id="tspan6"
         x="338.86505"
         y="523.07977"
         style="font-style:normal;font-variant:normal;font-weight:normal;font-stretch:normal;font-size:82.7924px;font-family:'Segoe Fluent Icons';-inkscape-font-specification:'Segoe Fluent Icons';fill:#000000;stroke:none;stroke-width:9.01264">DMorphC</tspan></text>
    <text
       xml:space="preserve"
       style="font-style:normal;font-variant:normal;font-weight:bold;font-stretch:normal;font-size:53.3333px;font-family:Leelawadee;-inkscape-font-specification:'Leelawadee Bold';fill:#000000;stroke:none;stroke-width:12.8655;stroke-dasharray:none"
       x="564.87408"
       y="561.85028"
       id="text7"><tspan
         sodipodi:role="line"
         id="tspan7"
         x="564.87408"
         y="561.85028"
         style="font-style:normal;font-variant:normal;font-weight:normal;font-stretch:normal;font-size:53.3333px;font-family:Leelawadee;-inkscape-font-specification:Leelawadee;text-align:center;text-anchor:middle">Derivational Morphemes </tspan><tspan
         sodipodi:role="line"
         x="564.87408"
         y="628.51691"
         style="font-style:normal;font-variant:normal;font-weight:normal;font-stretch:normal;font-size:53.3333px;font-family:Leelawadee;-inkscape-font-specification:Leelawadee;text-align:center;text-anchor:middle"
         id="tspan8">Counter</tspan></text>
  </g>
</svg>
