<?xml version="1.0" encoding="UTF-8" standalone="no"?>
<!-- Created with Inkscape (http://www.inkscape.org/) -->

<svg
   width="180"
   height="180"
   viewBox="0 0 180 180"
   version="1.1"
   id="svg1"
   inkscape:version="1.3.2 (091e20e, 2023-11-25, custom)"
   sodipodi:docname="dMorphC_FBCOVER.svg"
   inkscape:export-filename="dMorphC_FBCOVER.jpg"
   inkscape:export-xdpi="96"
   inkscape:export-ydpi="96"
   xmlns:inkscape="http://www.inkscape.org/namespaces/inkscape"
   xmlns:sodipodi="http://sodipodi.sourceforge.net/DTD/sodipodi-0.dtd"
   xmlns="http://www.w3.org/2000/svg"
   xmlns:svg="http://www.w3.org/2000/svg">
  <sodipodi:namedview
     id="namedview1"
     pagecolor="#ffffff"
     bordercolor="#000000"
     borderopacity="0.25"
     inkscape:showpageshadow="2"
     inkscape:pageopacity="0.0"
     inkscape:pagecheckerboard="0"
     inkscape:deskcolor="#d1d1d1"
     inkscape:document-units="px"
     inkscape:zoom="3.0523443"
     inkscape:cx="92.388005"
     inkscape:cy="90.094686"
     inkscape:window-width="1450"
     inkscape:window-height="1020"
     inkscape:window-x="128"
     inkscape:window-y="0"
     inkscape:window-maximized="0"
     inkscape:current-layer="layer1" />
  <defs
     id="defs1" />
  <g
     inkscape:label="Layer 1"
     inkscape:groupmode="layer"
     id="layer1">
    <path
       style="fill:none;stroke:#000000;stroke-width:3.13487;stroke-dasharray:none"
       d="m 123.43117,23.533274 c 0,0 8.30626,-0.772722 10.61066,3.762847 2.58,5.077994 -2.17669,12.498801 1.18355,17.03184 2.31754,3.126438 11.51105,6.061477 11.51105,6.061477 0,0 -8.13965,1.139856 -10.03465,4.004824 -3.65778,5.530028 1.77965,13.711192 -0.31632,20.036487 -0.89201,2.691985 -2.50272,5.529304 -4.96069,6.84953 -2.41819,1.298869 -5.45651,0.299929 -8.18695,0.280077 -2.70986,-0.01969 -8.1206,-0.396088 -8.1206,-0.396088 0,0 0.56724,8.43982 2.54469,11.994924 2.17519,3.910631 9.65397,9.194148 9.65397,9.194148"
       id="path1"
       sodipodi:nodetypes="csscsaaacac" />
    <path
       style="fill:#000000;stroke:#000000;stroke-width:4.00365;stroke-dasharray:none"
       d="m 126.97208,102.81184 c -0.89514,-7.430348 -0.84399,-14.575617 2.61019,-20.69567 l -14.11437,0.495112 c 0,0 -0.12965,5.245975 0.58004,7.723741 0.53575,1.870566 1.51876,3.626288 2.70687,5.149164 2.26717,2.905994 8.21727,7.327653 8.21727,7.327653 z"
       id="path2"
       sodipodi:nodetypes="cccaac" />
    <path
       style="fill:none;stroke:#000000;stroke-width:3.08001;stroke-dasharray:none"
       d="m 64.728365,23.761138 c 0,0 -8.210785,-0.754595 -10.488708,3.674543 -2.550328,4.958813 2.151669,12.205475 -1.169937,16.63213 -2.290892,3.053067 -11.378734,5.919227 -11.378734,5.919227 0,0 8.046082,1.113102 9.919301,3.910832 3.615725,5.400248 -1.759181,13.38942 0.312692,19.566274 0.881764,2.628808 2.575945,5.243272 4.903671,6.68878 2.84059,1.763996 7.092291,1.414024 9.832971,1.659816"
       id="path3"
       sodipodi:nodetypes="csscsaac" />
    <path
       style="fill:#000000;stroke:#000000;stroke-width:4.92889;stroke-dasharray:none"
       d="M 115.78816,16.176481 77.349386,94.221136"
       id="path4" />
    <path
       style="fill:none;stroke:#000000;stroke-width:4.00365;stroke-dasharray:none"
       d="M 82.115442,40.741546 64.520815,51.832048 81.922098,62.13037"
       id="path5" />
    <path
       style="fill:none;stroke:#000000;stroke-width:3.64362;stroke-dasharray:none"
       d="m 111.24474,39.738209 14.31261,11.291886 -14.15534,10.485328"
       id="path6" />
    <text
       xml:space="preserve"
       style="font-style:normal;font-variant:normal;font-weight:normal;font-stretch:normal;font-size:21.3333px;font-family:Consolas;-inkscape-font-specification:Consolas;fill:none;stroke:#000000;stroke-width:2.57749;stroke-dasharray:none"
       x="34.308746"
       y="135.09898"
       id="text6"
       transform="scale(1.0563337,0.94667055)"><tspan
         sodipodi:role="line"
         id="tspan6"
         x="34.308746"
         y="135.09898"
         style="font-style:normal;font-variant:normal;font-weight:normal;font-stretch:normal;font-size:21.3333px;font-family:'Segoe Fluent Icons';-inkscape-font-specification:'Segoe Fluent Icons';fill:#000000;stroke:none;stroke-width:2.57749">DMorphC</tspan></text>
    <text
       xml:space="preserve"
       style="font-style:normal;font-variant:normal;font-weight:bold;font-stretch:normal;font-size:12px;font-family:Leelawadee;-inkscape-font-specification:'Leelawadee Bold';fill:#000000;stroke:none;stroke-width:3.67936;stroke-dasharray:none"
       x="92.882095"
       y="146.02884"
       id="text7"
       transform="scale(0.9964716,1.0035409)"><tspan
         sodipodi:role="line"
         id="tspan7"
         x="92.882095"
         y="146.02884"
         style="font-style:normal;font-variant:normal;font-weight:normal;font-stretch:normal;font-size:12px;font-family:Leelawadee;-inkscape-font-specification:Leelawadee;text-align:center;text-anchor:middle;stroke-width:3.67936">Derivational Morphemes </tspan><tspan
         sodipodi:role="line"
         x="92.882095"
         y="161.02884"
         style="font-style:normal;font-variant:normal;font-weight:normal;font-stretch:normal;font-size:12px;font-family:Leelawadee;-inkscape-font-specification:Leelawadee;text-align:center;text-anchor:middle;stroke-width:3.67936"
         id="tspan8">Counter</tspan></text>
  </g>
</svg>
