<?xml version="1.0" encoding="UTF-8"?>
<svg id="Layer_1" data-name="Layer 1" xmlns="http://www.w3.org/2000/svg" viewBox="0 0 792 612">
  <defs>
    <style>
      .cls-1 {
        font-family: PalatinoLinotype-Roman, 'Palatino Linotype';
        font-size: 99.41px;
      }

      .cls-2 {
        fill: #fff;
      }

      .cls-3 {
        fill: #61798b;
      }

      .cls-4 {
        fill: none;
        stroke: #8f8f8f;
        stroke-miterlimit: 10;
        stroke-width: 1.52px;
      }
    </style>
  </defs>
  <g>
    <g>
      <path d="M390.33,46.86c183.25-2.49,315.31,172.46,252.11,347.58-74.52,206.47-364.21,231.98-473.53,41.93C69.33,263.29,191.73,49.55,390.33,46.86M386.69,62.57c-26.15,2.09-52.57,5.37-77.06,15.15l17.08,44.71c-34.19,13.78-65.3,34.86-87.9,64.23-16.86,21.91-37.67,64.04-38.73,91.81-.04,1.02-.21,2.35.75,3.03l7.61,1.86c1.46-23.97,10.35-47.88,21.86-68.79,27.71-50.34,80.31-84.88,137.15-92.73,2.65-.37,14.28-.64,15.09-1.61l2.64-8.35-48.55,6.49-13.52-33.61c-1.15-3.16,3.59-4.09,6.09-4.95,5.16-1.78,30.37-8.43,33.99-6.25,5.27,5.51-1.22,23.98-7.56,25.84-6.13,1.79-12.24-1.88-9.18-8.42,8.15-.16,9.46-2.61,10.66-10.2l-23.52,6.47,7.59,22.01,25.52-4.11,1.67-1.37,18.34-41.2ZM463.32,122.47c4.57-12.51,11.85-24.42,16.82-36.65.84-2.06,3.09-6.23,1.8-8.13-1.47-2.17-34.06-9.44-38.97-10.34-12.47-2.27-25.38-3.82-38.07-4.02-.55.53,3.94,10.11,4.66,11.65,2.95,6.34,11.4,25.11,15.41,29.35,2.75,2.91,12.7,3.08,17.26,3.98,2.78.55,5.33,1.8,8.15,2.02l7.53-22.28c-.57-2.47-20.04-6.25-23.42-7.28-1.27,9.82,2.57,9.52,10.63,10.98,2.86,7.14-7.35,9.93-12.72,7.42-4.16-1.94-10.07-22.94-4.75-25.62,2.1-1.06,7.36.29,9.9.73,3.78.66,31.53,6.75,31.9,8.48l-13.83,35.8c-1.56.97-18.96-3.64-22.47-4.21-3.75-.61-26.71-3.59-28.24-2.47l3.88,9c87.65,4.22,165.75,73.35,174.43,161.66l8.88-2.61c-9.29-72.45-60.72-132.92-128.78-157.46M395.05,81.53c5.14,3.68,5.2,18.17,8.29,21.67,2.19,2.48,6.91-.08,9.54,1.82l.8-1.52c-5.59-12.58-10.92-25.5-18.27-37.14l-18.57,37.93,11.01-1.5,7.2-21.26ZM268.36,147.54l-21.7-24.29c.73-2.97,16.73-13.2,20.25-15.46,5.21-3.34,10.65-6.78,16.11-9.68,1.89-1.01,11.11-5.94,12.29-5.92,1.05.01,1.74.69,2.21,1.55l12.21,27.29,1.16.43c6.75-2.11,5.4-3.56,3.56-9-1.31-3.87-11.69-29.65-13.48-30.58-1.75-.91-10.08,3.27-12.4,4.32-14.39,6.54-31.44,16.96-43.96,26.59-2.44,1.87-11.44,7.93-11.04,10.69l28.25,28.56,6.55-4.5ZM480.66,120.84c1.9-3.43,12.49-27.23,14.27-27.84,1.81-.61,3.46.06,5.11.72,7.67,3.07,20.82,11.27,28.01,15.99,5.68,3.74,11.29,7.92,16.36,12.47.44,2.21-9.68,10.96-11.67,13.17-1.29,1.43-9.2,10.46-9.39,11.17-.69,2.64,4.29,4.38,5.61,6.26l29.85-29.31c.14-1.62-5.62-5.81-7.13-7.04-13.26-10.8-35.65-24.86-51.43-31.26-8.48-3.44-8.97-2.29-13.53,5.7-3.4,5.95-9.86,19.89-11.63,26.3-.27.98-.66,1.93-.3,2.97l5.89.7ZM277.47,139.96l23.4-14.16c.41-1.41.11-2.71-.25-4.07-.55-2.12-8.15-19.39-9.2-19.64-1.67.54-5.47,2.21-6.34,3.58-2.06,3.22-4.07,14.1-4.97,18.35-.47,2.22-3.34,15.13-2.64,15.94M513.46,109.63c-1,2.66-8.59,14.51-10.47,15.02-1.91.52-5.97-1.69-5.41-3.89l8.12-12.96c-1.28-1.38-4.29-5.58-6.24-4.99-1.78.54-9.84,18.1-11.87,20.85.06,2.18,14.22,9.4,16.97,10.85,6.29-3.59,10.92-25.4,17.74-11.64l-10.24,15.94,3.88,2.53c2.72-2.69,17.62-16.16,17.06-19.12-2.02-2.6-17.61-13.98-19.55-12.57M275.18,111.91c-1.67-1.27-15.89,8.72-16.58,11.16-.9,3.22,8,10.18,10.9,11.57l5.68-22.73ZM397.89,113.6c-3.69-3.61-6.8,3.73-7.39,6.62l10.61.76c.27-.33-2.78-6.95-3.22-7.38M217.44,203.06l-26.98-16.39c8.29-17.35,21.15-31.91,34.26-45.71,3.36-.27,21.38,18.6,25.05,21.75l4.96-4.9c-8.56-10.1-18.6-19.72-30-26.67-14.29,11.18-25.86,26.24-35.59,41.54-1.87,2.94-9.96,15.55-10.18,17.91-.12,1.26,1.07,1.82,1.9,2.39l32.09,18.01c1.76.41,5.16-6.78,4.49-7.92M600.47,187.51c-3.35,2.22-25.78,13.99-26.27,15.9-.41,1.61,3.18,7.21,4.7,6.96,4.32-4.4,31.07-15.45,32.77-18.87.31-.63.42-1.18.43-1.89.02-4.03-15.34-26.24-18.73-30.66-2.81-3.66-22.68-26.5-25.12-27.24-1.85-.56-3.97-.13-5.49,1.03l-27.33,24.25,6.1,5.39,25.26-21.63c8.04,7.39,15.2,15.85,21.59,24.71,2.21,3.06,12.14,17.43,12.66,19.9.17.81-.05,1.52-.57,2.15M232.6,173.25c-3.32,1.62-6.17.91-9.3-.6l-2.51,4.14,9.91,7.08,13.2-15.45-18.42-16.87c-1.57.13-18.61,20.82-20.82,23.75-1.46,1.94-5.16,5.88-4.49,8.16.77,1.5,2.42,2.24,3.76,3.13,3.72,2.45,12.42,8.14,16.09,9.71.9.38,1.74.86,2.76.54l3.08-6.34-13.48-8.93c-2.06-3.54,8.53-15.7,11.75-17.96,3.58.08,10.82,5.86,8.46,9.65M547.66,167.35c-1.21,2.07,4.26,7.59,6.32,8.23,1.08-.25,3.92-10.05,11.4-10.66,3.48-.28,9.75,3.01,8.59-3.94-.3-1.82-6.03-9.92-7.73-9.62l-18.58,16ZM566.32,171.13c-2.76.55-10.29,7.45-4.93,9.95,8.51,3.96,13.27-11.6,4.93-9.95M580.74,176.51c-4.92.93-3.59,5.31-7.37,8.56-2.7,2.32-6.72,2.07-6.44,6.53.42,6.98,4.96,3.7,8.72,1.81,2.26-1.14,15.02-8.36,15.58-9.52.58-1.2-.47-2.58-1.04-3.54-2.25-3.83-5.12-4.65-9.44-3.83M160.66,289.45v-12.14c-2.3.82-8.25-1.94-9.53-.04l-1.84,22.04c7.15-2.84,17.15-4.76,23.7-8.54,1.14-.66,2.2-1.3,2.69-2.62l2.33-24.4-15.38-3.81c-.94-.52-.44-1.74-.37-2.61.72-9.23,7.83-30.34,11.47-39.4.88-2.2,3.31-8.74,5.55-8.94,6.47-.59,1.16,9.86,1.86,10.65l4.52.76,3.72-13.28c-.08-1.06-13.7-7.43-15.85-6.09-1.02.64-8.88,19.34-9.86,22.03-3.87,10.64-9.92,30.78-10.66,41.75-.13,1.93,1.08,3.78.06,5.68l15.18,1.52c-.79,6.16.98,17.49-7.59,17.45M639.33,269.59c-2.92-23.88-9.83-47.49-21.22-68.67-1.17-.74-4.49.54-5.83,1.04-10.4,3.9-20.71,10.85-31.34,14.57l3.52,6.71c1.16.21,12.42-6.19,15.26-6.61,2.66-.39,5.49,5.02,4.41,6.72l-15.62,6.42c-1.67,1.57.08,3.82.03,5.71,3.47-.71,17-6.89,19.24-5.28,2.84,2.04,6.19,21.29,8.12,25.69,1.97.57,6.55-.63,6.43-3.02l-13.3-39.06c-.1-1.86,4.11-4.1,5.21-3.32,3.45,9.09,7.44,18.05,10.14,27.43,1.09,3.79,5.06,18.47,4.22,21.28-.98,3.28-14.35,3.17-14.95,5.53,1.79,5.51,1.01,22.65,4.83,26.14,1.26,1.15,22.32,8.44,23.16,7.56-.18-3.65.25-7.39.03-11.03-.08-1.37-.86-9.09-1.13-9.49-1.03-1.55-6.86.44-8.81.4l.07,9.76c-1.84,2.32-5.58.61-6.69-1.56-.75-1.46-1.89-12.74-1.33-13.86,1.65-2.75,14.43-1.93,15.53-3.07M197.09,219.67c4.1-1.19,9.62,5.69,12.46,2.23.47-.58,1.82-3.71,1.74-4.18-.15-.99-17.36-9.44-18.03-8.69l-6.88,35.2,12.47,3.54,1.23-5.35c-3.55-.46-10.31-.64-7.42-5.54,2.87-4.87,12.45,4.44,11.12-6.52l-7.57-2.89.87-7.8ZM180.28,239.27c1.48-.96,5.25-15.09-2.46-12.74-1.23.4-3.77,8.65-3.55,10.16.33,2.27,4.64,3.47,6.01,2.58M596.14,260.53l13.52-3.39c-1.43-2.93-3.89-18.56-6.45-19.29-1.17-.33-12.03,3.88-12.18,4.82l1.37,5.65,9.04.07-.11,5.21-5.9,1.68.72,5.26ZM178.86,244.68c-6.64.61-7.58,2.4-9.88,7.97-.28.67-1.31.56.02,1.52l25.74,5.63,1.25-5.28c-5.41-3.44-17.64-1.15-17.14-9.84M182.67,285.64c8.76.92,10.38-7.88,10.64-14.84.18-4.86-4.73-4.01-8.37-4.13l-2.27,18.97ZM609.02,287.08l-2.61-19.76c-1.14-1.7-5.53-.03-7.26.41-.85.55-.79,1.38-.79,2.25,0,1.23,1.64,12.71,1.93,13.32.93,1.97,6.59,3.42,8.73,3.78M206.87,291.06l-7.51-2.38-.77,11.38h7.59s.69-9,.69-9ZM592.32,288.6c-.43-.38-6.59,1.22-7.21,2.26l-.37,9.11h8.35s-.77-11.37-.77-11.37ZM190.25,293.23c-7.3,1.89-15.55,5.03-22.51,8.22-1.84.84-3.83,1.8-5.58,2.8-.83.47-1.85-.08-1.5,1.5l29.59,11v-23.52ZM601.44,293.15v23.52s29.59-10.64,29.59-10.64c.79-1.03-6.21-4.26-7.07-4.68-2.68-1.3-21.37-9.36-22.52-8.21M206.19,307.64h-8.35s.77,12.9.77,12.9l7.21-3.79.38-9.11ZM593.09,307.57h-7.59s-.04,9.4-.04,9.4l7.64,2.74v-12.14ZM641.64,311.36c-.8-.9-20.96,7.23-22.54,8.18-1.29.78-1.51,1.06-2.11,2.44-2.74,6.28-2.22,16.67-4.14,23.48l15.83,4.67c-.52,17.76-8.29,34.99-14.4,51.43-5.17,1.4-4.82-3.33-7.54-5.58-3.73-3.08-13.65-4.44-13.66-10.64,0-1.53,2.52-9.74,3.46-10.99,3.5-4.68,15.23-.65,10.99,4.16-1.36,1.54-8.13,2.54-5.71,6.45.66,1.06,8.32,4.18,9.5,3.43,3.53-2.23,5.16-12.98,5.91-16.91l-.57-1.32c-1.11-1.19-17.16-6.01-19.59-6.3-8.28-.96-7.33,12.44-8.84,17.33-.82,2.68-8.09,8.38-4.98,11.72l30.9,17.66c6.35,1.81,8.74-8.56,10.64-13.32,6.96-17.45,11.82-35.99,15.16-54.48-.41-2.14-14.35-2.4-16.46-5.36-.93-1.3,1.87-17.25,3.33-17.52.23-.04,4.01.72,4.26.89,2.05,1.42-.66,9.38-.47,11.82l9.53,2.24c1.38-7.77,1.77-15.62,1.52-23.51M178.06,346.29c-1.06-4.37-2.39-24.85-4.51-26.87-.78-.74-18.82-6.94-20.29-7.09-.61-.06-1.16-.23-1.7.21l-1.29,2.42,1.31,20.77,9.02-2.35c.86-2.49-2.61-11.44-.57-12.72h5.47s1.14,1.13,1.14,1.13l1.27,16.21-15.6,4.22c3.45,21.65,8.51,44.01,18.12,63.81.78,1.61,2.85,6.63,4.4,6.93,2.85-.48,5.35-2,7.88-3.26,6.83-3.37,20.27-10.01,26.03-14.18.99-.71,1.93-1.16,2.06-2.57l-1.93-3.19-26.73,11.8c-5.33.72-7.49-7.79-9.12-11.8-4.95-12.13-9.03-25.4-10.88-38.4l15.94-5.09ZM190.83,324.51l-8.92-2.45c.4,2.94,2.41,21.47,4.14,21.81l7.99-1.35-3.2-18.01ZM609.02,323.5l-8.74,3.02-1.91,15.57,8.01,1.18,2.63-19.76ZM263.43,438.56c-6.23-7.04-13.01-13.58-18.83-21-20.59-26.26-32.5-58-37.26-90.97-1.37-2.07-5.96,1.62-7.92,1.6,6.41,47.68,29.62,92.52,66.35,123.58l3.15-7.22c-.07-.6-4.56-4.94-5.49-5.99M592.34,328.06l-8.35-2.28c-9.04,87.02-80.43,155.67-166.5,166.17-8.35,1.02-9.38-1.58-11.75,9.11,9.86-.88,19.95-2.27,29.74-4.02,3.51-.63,19.42-5.01,21.1-3.98,1.66,1.02,12.18,32.17,12.8,36.72-.75,1.17-18.23,6.11-21,6.7-4.78,1.02-22.01,4.22-25.51,1.84-1.1-7.98,3.41-22.54,11.3-25.9,9.55-4.07,13.61-.89,15.63,8.66l-3.46,2.73c-3.92-1.15-3.98-7.41-9.48-4.91-2.1.95-6.46,10.6-5.32,11.74,4.12.31,8.14-.36,12.17-1.11,2.84-.53,11.68-2.5,13.85-3.6.93-.47,1.24-.57,1.33-1.74l-7.58-22.06-28.83,6.17-1.23,1.8c-3.25,11.93-12.81,24.98-15.88,36.46-.27,1.02-.54,1.97-.37,3.04,26.49-1.13,52.32-6.02,77.38-14.44-3.6-10.41-7.63-20.74-12.01-30.84-1.42-3.27-4.99-8.8-5.88-11.59-.34-1.08-.64-2.02.02-3.08.79-1.25,22.89-10.68,26.71-12.76,38.05-20.74,71.88-58.41,87.83-98.8,6.37-16.13,9.83-33.1,13.29-50.04M620.42,356.12l-23.06-6.88c-1.33,2.88-3.19,5.65.1,7.46,1.72.95,18.85,6.32,20.33,6.28.54-.01,1.08.19,1.2-.48l1.43-6.39ZM194.75,350.19c-.88-.78-21.44,4.57-22.71,5.62-1.34,1.12-.88,5.49-.39,7.26.6,1.05,2.62-.02,3.58-.27,6.13-1.62,12.54-5.54,19.1-6.52,1.45-1.79.89-4.08.43-6.08M198.51,363.12c-1.34-.86-20.71,5.05-21.54,6.73-2.12,8.52,1.82,15.23,5.06,22.64,1.82,1.14,12.04-2.84,14.48-3.86,3.3-1.39,9.66-3.04,8.42-8.01-2.2-8.78-9.25.92-12.83,2.08-.79.26-5.18.89-5.85.72-3.26-.87-4.19-8.57-.53-10.12,4.99-2.11,9.65,3.82,13.69-2.24,1.74-2.62-.18-5.33-.91-7.93M215.29,399.44l-36.14,22.37c-.55,5.47,25.66,39.13,30.82,44.81,2.05,2.25,5.25,4.18,7.62,6.79,3.44,3.77,4.11,9.43,11.33,4.5,5.3-3.62,18.6-16.49,23.22-21.54.78-.85,1.82-2.13,1.71-3.33-.14-1.55-3.19-5.25-4.91-4.49-2.04.89-11.39,9.72-13.91,11.96-1.96,1.74-9.67,10.95-12.13,9.49,1.17-2.42-2.21-3.16-3.82-4.9-6.18-6.68-12.68-14.79-18.06-22.15-1.92-2.63-11.24-14.9-10.66-17.18.77-3,22.87-14.8,26.52-17.54,2.25-3.03-1.13-5.86-1.59-8.79M545.59,451.46c-1.06-.9-1.16-3.31-3.53-2.69l-5.07,4.85c7.5,6.99,14.94,15.46,22.74,22.01,1.62,1.35,6.11,5.23,8.13,4.37,11.34-8.94,21.03-20.4,29.35-32.16,2.93-4.14,16.04-23.59,14.8-27.48l-34.76-20.93-2.77,7.54,25.41,16.36c2.58,2.69,1.33,3.93-.09,6.62-4.67,8.9-20.22,30.29-27.53,36.95-4.67,4.24-5.54,2.66-9.84-.78-5.61-4.48-11.27-9.93-16.83-14.65M221.18,413.98c-6.62,1.3,1.8,10.48,2.71,10.4.79-.07,4.45-1.89,4.24-3.2-2.55-2.2-3.03-7.97-6.95-7.2M570.77,413.79c-.69.17-5.15,6.91-3.85,8.32l1.53,1.37c4.41-2.24,8.92-6.87,2.32-9.69M210.39,419.35c-2.38,1.24-10.51,8.38-10.16,10.64.32,2.09,13.45,18.54,15.86,21.39,1.49,1.77,6.69,8.25,8.52,7.88,1.7-.35,17.55-14.02,18.4-15.84.83-1.78.36-3.09-1.15-4.2-.52-.4-.98-.19-1.53-.04-3.12.86-12.59,11.58-15.53,11.6-6.23-4.26-10.87-11.57-16.03-17.18l.06-1.51,2.42-2.24,1.02.27c2.33,1.63,9.23,11.66,11.02,11.85,2.79.29,10.41-6.52,12.93-8.41l.05-1.52-4.5-4.43c-2.13.55-4.48,4.23-5.86,4.86-4.22,1.94-12.17-10.95-15.52-13.12M589.22,433.39l2.05-5.18-11.8-8.36-15.92,25.46-4.61-1.59c-.5-3.12,5.59-9.51,7.57-12.11-3.55-4.47-5.42-2.98-8.68.37-1.61,1.65-8.31,9.85-7.85,11.61l10.9,11.14,18.91-22.04c3.2-2.31,6.02,1.78,9.43.69M583.26,441.09c-.07-.09-1.89-.55-2.29-.38-1.07.44-14.06,16.67-14.62,18.07-.61,1.55-.03,2.11.23,3.55.57.47,8.22-7.72,9.07-8.75,1.41-1.7,8.65-11.15,7.6-12.5M310.22,489.78c-1.03,4.82-11.32,28.48-15.02,29.41-8.76-3.31-17.83-8.31-25.95-13.23-3.73-2.26-22.72-14.52-23.5-17.53-.58-2.21,6.36-8.04,7.83-10.14,3.43-4.89,5.27-12.48,7.9-17.94.11-2.27-2.83-2.12-3.71-.64-6.65,8.21-16.67,15.91-23.11,23.93-.92,1.14-2.92,3.4-2.71,4.87,20.33,17.13,43.04,31.9,67.98,41.48l.99-.21c2.58-4.58,17.55-35.9,15.96-38.46l-6.66-1.54ZM489.98,531.38c25.65-8.86,48.79-25.92,69.44-43.26v-1.5s-29.53-27.25-29.53-27.25l-5.78,4.87,21.71,23.12-.06,1.51c-15.03,12.53-31.22,24.08-49.36,31.65l-15.17-29.36c-.95-1.43-3.81.33-4.89,1.19-.43.34-.91.62-1.21,1.11l14.86,37.92ZM522.57,474.47c.66-.94-3.64-5.33-4.93-5.32l-10.19,7.31,14.09,19.17c1.2.23,13.21-7.94,13.22-9.38-4.98-8.12-7.3-7.05-14.47-2.23-3.91-3.51-2.58-8.09,2.28-9.55M384.5,500.3l-3.51-8.24c-19.16-1.52-37.89-6.24-55.65-13.45-1.58-1.03-11.15,4.34-10.63,5.01,2.3,1.35,12.7,3.72,12.76,6.29l-18,43.32c.32,1.84,7.14,3.91,9.07,4.62,5.1,1.87,11.2,3.48,16.52,4.72,16.41,3.84,34.12,6.09,50.97,6.29.7-.65-3.03-8.96-3.66-10.37-3.64-8.19-8.97-21.01-13.39-28.33-.59-.98-.99-1.87-1.88-2.67-4.03-3.64-19.5-4.31-25.32-6.33-1.54.48-8.15,16.73-8.12,19.23.04,2.67.96,6.25,4.15,6.46,3.57-4.12,2.74-11.62,6.99-15.04,5.43-4.37,15.13-.7,18.8,4.49,2.53,3.57,8.66,20.5,4.24,23.09-2.75,1.61-21.59-2.02-25.82-3.03-4.23-1-15.08-3.83-18.44-5.83-.78-.46-1.34-.69-1.3-1.76,1.49-4.35,11.52-36.82,13.4-37.47,1.98-.68,15.33,4.16,19.1,4.97,3.64.79,28.5,5.22,29.72,4.03M501.95,480.7c-2.35-1.39-10.19,4.67-12.8,5.67,1.08,8.9,7.38,16.24,10.39,24.59l6.35-2.77c.32-1.47-8.58-11.74-8.75-14.34-.3-4.69,5.09-5.73,7.19-9.23.05-.3-2.17-3.81-2.37-3.93M304.08,486.67l-17.44,6.44,10.92,5.63,6.52-12.07ZM511.42,503.08c.48.42,1.07.65,1.68.82,5.85-5.6-1.88-13.81-8.73-11.95-1.22,1.18,5.8,10.03,7.05,11.14M401.95,492.72h-12.9c4.61,11.43,8.46,11.78,12.9,0M294.86,504.99c-.37-.59-10.73-5.08-12.54-6.04-1.58-.84-2.81-2.69-4.58-3.06-2.68-.55-5.23,1.05-7.79,1.4-1.42,1.83,19.77,13.06,22.71,13.31,2.28.2,3.07-4.23,2.2-5.62M414.09,508.65h-10.62c-3.86,4.48-4.05,16.31-6.76,20.04-.48.66-1.35.66-1.97.46-1.03-.33-6.47-17.96-7.34-20.37l-11.25-.88,20.48,40.2,17.45-39.45ZM361.75,530.65c-1.02-3.87-4.59-12.68-8.91-13.54-5.21-1.03-7.71,8.74-4.57,11.85,1.07,1.07,12.52,2.39,13.48,1.68"/>
      <path d="M287.33,113.41c.24-.31,5.89,3.87,6.47,4.52,5.28,5.89-4.3,7.17-8.35,9.9-3.62-.73,2.26-11.86,1.88-14.41"/>
    </g>
    <path class="cls-4" d="M275.48,487.63c-1.64,0-3.27-.23-4.83-.69l-.22-.06-.21-.07c-4.81-1.61-9.28-2.1-6.09-13.44,1.74-6.21,3.45-9.87,7-15.89,2.17-3.67,6.15-10.48,7.43-13.45-1.48-1.44-6.31-8.17-7.95-9.6-2.78-2.43-5.66-4.94-7.89-7.34-24.41-26.28-40.35-58.17-46.11-92.24-5.4-31.94-1.85-64.93,10.25-95.4,11.97-30.13,31.71-56.23,57.07-75.48,27.06-20.53,59.94-32.6,95.1-34.92,4.29-.28,8.63-.43,12.89-.43,33.1,0,65.49,8.63,93.65,24.98,26.97,15.66,49.52,37.96,65.23,64.49,14.88,25.14,23.17,53.53,23.99,82.12.89,30.9-6.62,61.04-22.3,89.6-16,29.13-39.16,53-66.99,69.01-26.87,15.47-58.04,23.65-90.11,23.66h0c-20.84,0-41.8-3.38-62.3-10.05-2.8-.91-4.86-1.81-6.37-2.47-.38-.17-.82-.36-1.16-.5-.44.08-1.28.28-2.72.76-5.03,1.64-10.54,4.17-16.38,6.84-8.27,3.79-16.82,7.7-25.48,9.77l-.24.06c-1.2.29-3.01.73-5.28.73Z"/>
    <path class="cls-2" d="M381.24,136.38c-143.41,9.47-210.34,180.39-111.7,286.58,4.27,4.59,12.85,10.95,15.96,15.15,2.23,3.01,2.46,4.47,1.29,8.15-3.02,9.52-13.14,22.02-15.75,31.3-.38,1.36-.89,3.1.91,3.71,1.43.42,2.69.06,4.07-.27,13.69-3.27,28.74-12.47,42.28-16.89,9.92-3.24,9.86-.55,18.57,2.29,82.54,26.85,169.32-2.41,211.6-79.4,67.05-122.08-31.78-259.56-167.24-250.61"/>
    <g>
      <path class="cls-3" d="M641.64,311.36c.25,7.89-.14,15.75-1.52,23.51l-9.53-2.24c-.2-2.44,2.52-10.41.47-11.82-.24-.17-4.02-.93-4.26-.89-1.46.26-4.25,16.22-3.33,17.52,2.11,2.96,16.05,3.22,16.46,5.36-3.33,18.48-8.2,37.02-15.16,54.48-1.9,4.76-4.29,15.13-10.64,13.32l-30.9-17.66c-3.11-3.34,4.16-9.04,4.98-11.72,1.51-4.9.56-18.29,8.84-17.33,2.43.28,18.48,5.11,19.59,6.3l.57,1.32c-.75,3.93-2.38,14.68-5.91,16.91-1.18.75-8.84-2.37-9.5-3.43-2.42-3.91,4.36-4.91,5.71-6.45,4.24-4.82-7.48-8.84-10.99-4.16-.94,1.25-3.47,9.46-3.46,10.99.01,6.2,9.94,7.56,13.66,10.64,2.72,2.25,2.38,6.98,7.54,5.58,6.1-16.44,13.88-33.68,14.4-51.43l-15.83-4.67c1.92-6.81,1.4-17.2,4.14-23.48.6-1.38.83-1.66,2.12-2.44,1.58-.95,21.74-9.08,22.54-8.18"/>
      <path class="cls-3" d="M160.66,289.45c8.57.04,6.8-11.29,7.59-17.45l-15.18-1.52c1.02-1.9-.19-3.75-.06-5.68.74-10.96,6.8-31.11,10.66-41.75.98-2.69,8.84-21.39,9.86-22.03,2.15-1.34,15.77,5.03,15.85,6.09l-3.73,13.28-4.52-.76c-.7-.79,4.61-11.24-1.86-10.65-2.23.2-4.66,6.74-5.55,8.94-3.64,9.06-10.74,30.18-11.47,39.4-.07.87-.57,2.09.37,2.61l15.38,3.81-2.33,24.4c-.5,1.31-1.55,1.96-2.69,2.62-6.55,3.78-16.55,5.7-23.7,8.54l1.84-22.04c1.28-1.89,7.24.86,9.53.04v12.14Z"/>
      <path class="cls-3" d="M268.36,147.54l-6.55,4.5-28.25-28.56c-.4-2.76,8.6-8.81,11.04-10.69,12.53-9.63,29.57-20.06,43.97-26.59,2.32-1.05,10.65-5.24,12.4-4.32,1.79.93,12.17,26.7,13.48,30.58,1.84,5.43,3.2,6.88-3.56,9l-1.16-.43-12.21-27.29c-.47-.86-1.16-1.54-2.21-1.55-1.18-.02-10.4,4.92-12.29,5.92-5.46,2.9-10.9,6.34-16.11,9.68-3.52,2.25-19.52,12.49-20.25,15.46l21.7,24.29Z"/>
      <path class="cls-3" d="M310.22,489.78l6.66,1.54c1.59,2.56-13.38,33.88-15.96,38.46l-.99.21c-24.94-9.58-47.65-24.35-67.98-41.48-.21-1.46,1.79-3.72,2.71-4.87,6.44-8.02,16.46-15.71,23.11-23.93.88-1.49,3.82-1.64,3.71.64-2.63,5.46-4.46,13.05-7.9,17.94-1.48,2.1-8.41,7.93-7.83,10.14.78,3.01,19.77,15.27,23.5,17.53,8.12,4.92,17.2,9.93,25.95,13.23,3.69-.93,13.99-24.59,15.02-29.41"/>
      <path class="cls-3" d="M513.46,109.63c1.94-1.41,17.53,9.97,19.55,12.57.56,2.97-14.34,16.43-17.06,19.12l-3.88-2.52,10.24-15.94c-6.82-13.76-11.46,8.04-17.74,11.64-2.75-1.45-16.91-8.67-16.97-10.85,2.03-2.75,10.09-20.31,11.87-20.85,1.95-.59,4.96,3.61,6.24,4.99l-8.12,12.96c-.56,2.2,3.5,4.41,5.41,3.89,1.88-.51,9.47-12.36,10.47-15.02"/>
      <path class="cls-3" d="M198.51,363.12c.73,2.6,2.65,5.31.91,7.93-4.04,6.06-8.71.13-13.69,2.24-3.66,1.55-2.73,9.25.53,10.12.67.18,5.06-.46,5.85-.72,3.58-1.16,10.63-10.86,12.83-2.08,1.24,4.97-5.12,6.62-8.42,8.01-2.44,1.03-12.66,5.01-14.48,3.86-3.25-7.42-7.18-14.12-5.06-22.64.83-1.68,20.2-7.59,21.54-6.73"/>
      <path class="cls-3" d="M596.14,260.53l-.72-5.26,5.9-1.68.11-5.21-9.04-.07-1.37-5.65c.15-.94,11.01-5.15,12.18-4.82,2.56.73,5.02,16.37,6.45,19.29l-13.52,3.39Z"/>
      <path class="cls-3" d="M501.95,480.7c.2.12,2.42,3.63,2.37,3.93-2.09,3.5-7.49,4.54-7.19,9.23.17,2.61,9.07,12.88,8.75,14.34l-6.35,2.77c-3.01-8.35-9.31-15.69-10.39-24.59,2.62-1,10.45-7.06,12.81-5.67"/>
      <path class="cls-3" d="M463.33,122.47c68.06,24.54,119.49,85.01,128.78,157.46l-8.88,2.61c-8.69-88.31-86.78-157.44-174.43-161.66l-3.88-9c1.53-1.11,24.5,1.86,28.24,2.47,3.51.57,20.91,5.18,22.47,4.21l13.83-35.8c-.37-1.73-28.12-7.81-31.9-8.48-2.54-.45-7.8-1.79-9.9-.73-5.32,2.68.58,23.68,4.75,25.62,5.38,2.51,15.58-.28,12.72-7.42-8.06-1.46-11.89-1.17-10.63-10.98,3.38,1.03,22.85,4.81,23.42,7.28l-7.53,22.28c-2.82-.22-5.38-1.48-8.15-2.02-4.56-.9-14.51-1.07-17.26-3.98-4.02-4.24-12.46-23.01-15.41-29.35-.72-1.54-5.21-11.12-4.66-11.65,12.69.21,25.6,1.75,38.07,4.02,4.91.89,37.5,8.17,38.97,10.34,1.29,1.9-.96,6.07-1.8,8.13-4.97,12.23-12.25,24.15-16.82,36.65"/>
      <path class="cls-3" d="M386.69,62.57l-18.34,41.2-1.67,1.37-25.52,4.11-7.59-22.01,23.52-6.47c-1.2,7.59-2.51,10.04-10.66,10.2-3.06,6.54,3.05,10.21,9.18,8.42,6.34-1.85,12.84-20.33,7.56-25.84-3.62-2.18-28.82,4.48-33.99,6.25-2.5.86-7.24,1.79-6.09,4.95l13.52,33.61,48.55-6.49-2.64,8.35c-.81.97-12.44,1.24-15.09,1.61-56.83,7.86-109.44,42.39-137.15,92.73-11.51,20.91-20.4,44.82-21.86,68.79l-7.61-1.86c-.96-.68-.79-2.01-.75-3.03,1.06-27.78,21.86-69.9,38.73-91.81,22.6-29.36,53.71-50.45,87.9-64.23l-17.08-44.71c24.49-9.78,50.91-13.06,77.06-15.15"/>
      <path class="cls-3" d="M592.34,328.06c-3.46,16.94-6.93,33.92-13.29,50.04-15.95,40.39-49.78,78.05-87.83,98.8-3.82,2.08-25.92,11.51-26.71,12.76-.66,1.06-.37,2-.02,3.08.89,2.8,4.46,8.33,5.88,11.59,4.38,10.1,8.41,20.43,12.01,30.84-25.06,8.42-50.89,13.31-77.38,14.44-.18-1.07.09-2.02.37-3.04,3.07-11.49,12.63-24.53,15.88-36.46l1.23-1.8,28.83-6.17,7.58,22.06c-.09,1.17-.4,1.27-1.33,1.74-2.17,1.1-11.01,3.07-13.85,3.6-4.03.75-8.05,1.42-12.17,1.11-1.14-1.14,3.22-10.79,5.32-11.74,5.5-2.5,5.57,3.76,9.48,4.91l3.46-2.73c-2.01-9.55-6.07-12.73-15.63-8.66-7.89,3.36-12.4,17.92-11.3,25.9,3.5,2.38,20.73-.82,25.51-1.84,2.77-.59,20.24-5.53,21-6.7-.62-4.55-11.14-35.7-12.8-36.72-1.68-1.03-17.59,3.35-21.1,3.98-9.8,1.75-19.88,3.14-29.74,4.02,2.37-10.7,3.4-8.09,11.75-9.11,86.08-10.5,157.46-79.15,166.5-166.17l8.35,2.28Z"/>
      <path class="cls-3" d="M384.5,500.3c-1.23,1.2-26.08-3.24-29.72-4.03-3.77-.81-17.12-5.66-19.1-4.97-1.88.65-11.92,33.12-13.4,37.47-.04,1.07.52,1.3,1.3,1.76,3.36,1.99,14.21,4.82,18.44,5.83,4.22,1,23.07,4.64,25.82,3.03,4.42-2.59-1.71-19.53-4.24-23.09-3.68-5.18-13.37-8.86-18.8-4.49-4.24,3.42-3.42,10.92-6.99,15.04-3.18-.21-4.11-3.79-4.15-6.46-.04-2.5,6.58-18.75,8.12-19.23,5.82,2.02,21.29,2.69,25.32,6.33.89.8,1.29,1.69,1.88,2.67,4.42,7.33,9.76,20.14,13.39,28.33.62,1.41,4.36,9.72,3.66,10.37-16.86-.2-34.56-2.45-50.97-6.29-5.32-1.24-11.42-2.85-16.52-4.72-1.94-.71-8.76-2.78-9.07-4.62l18-43.32c-.05-2.57-10.46-4.94-12.76-6.29-.52-.68,9.05-6.04,10.63-5.01,17.76,7.21,36.49,11.93,55.65,13.45l3.51,8.24Z"/>
      <path class="cls-3" d="M639.33,269.6c-1.1,1.14-13.89.32-15.53,3.07-.56,1.12.58,12.4,1.33,13.86,1.1,2.16,4.85,3.88,6.68,1.56l-.07-9.76c1.95.05,7.78-1.94,8.81-.4.26.4,1.05,8.12,1.13,9.49.22,3.64-.22,7.38-.03,11.03-.84.88-21.9-6.4-23.16-7.56-3.81-3.49-3.03-20.63-4.83-26.14.59-2.35,13.97-2.25,14.95-5.53.84-2.81-3.13-17.49-4.22-21.28-2.69-9.38-6.68-18.34-10.14-27.43-1.1-.78-5.31,1.46-5.21,3.32l13.3,39.06c.12,2.39-4.46,3.59-6.44,3.02-1.94-4.41-5.28-23.65-8.12-25.69-2.24-1.61-15.77,4.57-19.24,5.28.04-1.89-1.7-4.14-.03-5.71l15.62-6.42c1.08-1.7-1.75-7.12-4.41-6.73-2.85.42-14.1,6.83-15.26,6.61l-3.52-6.71c10.63-3.73,20.94-10.67,31.34-14.57,1.34-.5,4.66-1.79,5.83-1.04,11.39,21.18,18.3,44.79,21.22,68.67"/>
      <path class="cls-3" d="M178.06,346.29l-15.94,5.09c1.86,13,5.94,26.27,10.88,38.4,1.63,4.01,3.79,12.51,9.12,11.8l26.73-11.8,1.93,3.19c-.12,1.42-1.07,1.86-2.06,2.57-5.76,4.17-19.2,10.8-26.03,14.18-2.54,1.25-5.04,2.77-7.88,3.26-1.55-.3-3.62-5.32-4.4-6.93-9.6-19.8-14.66-42.16-18.12-63.81l15.6-4.22-1.27-16.21-1.14-1.14h-5.47c-2.03,1.28,1.43,10.23.57,12.72l-9.02,2.35-1.31-20.77,1.29-2.42c.54-.44,1.09-.28,1.7-.21,1.48.16,19.51,6.35,20.29,7.1,2.12,2.02,3.45,22.5,4.51,26.87"/>
      <path class="cls-3" d="M480.66,120.84l-5.89-.7c-.35-1.03.03-1.98.3-2.97,1.77-6.41,8.24-20.35,11.63-26.3,4.56-7.99,5.05-9.13,13.54-5.7,15.78,6.4,38.17,20.46,51.43,31.26,1.51,1.23,7.27,5.42,7.13,7.04l-29.85,29.31c-1.32-1.89-6.3-3.63-5.61-6.26.19-.71,8.1-9.73,9.39-11.17,1.98-2.2,12.1-10.96,11.67-13.17-5.06-4.55-10.68-8.73-16.36-12.47-7.18-4.73-20.33-12.92-28.01-15.99-1.65-.66-3.3-1.33-5.11-.72-1.78.6-12.38,24.41-14.27,27.84"/>
      <path class="cls-3" d="M489.98,531.38l-14.86-37.92c.3-.49.78-.76,1.21-1.11,1.09-.87,3.94-2.63,4.89-1.19l15.17,29.36c18.14-7.57,34.33-19.13,49.36-31.65l.06-1.51-21.71-23.12,5.79-4.87,29.53,27.25v1.5c-20.65,17.34-43.79,34.4-69.44,43.26"/>
      <path class="cls-3" d="M263.42,438.56c.93,1.05,5.43,5.38,5.49,5.99l-3.15,7.22c-36.73-31.06-59.94-75.89-66.35-123.58,1.96.02,6.55-3.67,7.92-1.6,4.76,32.96,16.67,64.7,37.26,90.97,5.82,7.42,12.6,13.96,18.83,21"/>
      <path class="cls-3" d="M277.47,139.96c-.7-.81,2.17-13.72,2.64-15.94.89-4.25,2.9-15.14,4.97-18.35.88-1.37,4.68-3.04,6.35-3.58,1.06.25,8.65,17.52,9.2,19.64.36,1.37.66,2.66.25,4.07l-23.4,14.16ZM287.33,113.41c.38,2.56-5.49,13.68-1.88,14.41,4.05-2.72,13.63-4.01,8.35-9.9-.58-.65-6.23-4.83-6.47-4.52"/>
      <path class="cls-3" d="M197.09,219.67l-.87,7.8,7.57,2.89c1.32,10.96-8.25,1.65-11.13,6.52-2.89,4.9,3.87,5.08,7.42,5.54l-1.23,5.35-12.47-3.54,6.88-35.2c.67-.75,17.88,7.7,18.03,8.69.07.47-1.27,3.6-1.74,4.18-2.84,3.46-8.36-3.42-12.46-2.22"/>
      <path class="cls-3" d="M522.57,474.47c-4.86,1.46-6.19,6.03-2.28,9.55,7.17-4.82,9.49-5.88,14.47,2.24,0,1.44-12.03,9.61-13.22,9.38l-14.09-19.17,10.19-7.31c1.29,0,5.58,4.38,4.93,5.32"/>
      <path class="cls-3" d="M178.86,244.68c-.5,8.68,11.73,6.39,17.14,9.84l-1.25,5.28-25.74-5.63c-1.33-.96-.3-.85-.02-1.52,2.3-5.57,3.24-7.36,9.88-7.97"/>
      <path class="cls-3" d="M275.18,111.91l-5.68,22.73c-2.9-1.4-11.81-8.35-10.9-11.57.69-2.44,14.91-12.43,16.58-11.16"/>
      <path class="cls-3" d="M190.83,324.51l3.2,18.01-7.99,1.35c-1.73-.34-3.73-18.87-4.14-21.81l8.92,2.45Z"/>
      <path class="cls-3" d="M620.42,356.12l-1.43,6.39c-.12.67-.66.47-1.2.48-1.48.03-18.61-5.33-20.33-6.28-3.29-1.82-1.43-4.58-.1-7.47l23.06,6.88Z"/>
      <path class="cls-3" d="M194.75,350.19c.46,2,1.02,4.3-.43,6.08-6.56.98-12.96,4.9-19.1,6.52-.96.25-2.97,1.32-3.58.27-.49-1.77-.95-6.14.39-7.26,1.27-1.05,21.83-6.4,22.71-5.62"/>
      <polygon class="cls-3" points="609.02 323.5 606.39 343.26 598.38 342.08 600.29 326.52 609.02 323.5"/>
      <path class="cls-3" d="M609.02,287.08c-2.14-.36-7.8-1.81-8.73-3.78-.29-.61-1.92-12.09-1.93-13.32,0-.87-.06-1.7.79-2.25,1.73-.43,6.12-2.1,7.26-.4l2.61,19.76Z"/>
      <path class="cls-3" d="M294.86,504.99c.87,1.4.08,5.83-2.19,5.62-2.95-.26-24.13-11.48-22.71-13.32,2.55-.36,5.1-1.95,7.79-1.4,1.78.36,3,2.22,4.58,3.06,1.81.96,12.17,5.45,12.54,6.04"/>
      <path class="cls-3" d="M182.66,285.64l2.27-18.97c3.64.12,8.55-.73,8.37,4.13-.26,6.95-1.87,15.76-10.64,14.84"/>
      <path class="cls-3" d="M361.75,530.65c-.96.71-12.41-.62-13.48-1.68-3.13-3.11-.63-12.89,4.57-11.85,4.32.86,7.88,9.66,8.91,13.54"/>
      <polygon class="cls-3" points="304.08 486.67 297.56 498.75 286.64 493.11 304.08 486.67"/>
      <path class="cls-3" d="M180.28,239.27c-1.37.89-5.68-.31-6.01-2.58-.22-1.51,2.33-9.76,3.55-10.16,7.71-2.35,3.94,11.79,2.46,12.74"/>
      <path class="cls-3" d="M511.42,503.08c-1.25-1.11-8.27-9.96-7.05-11.14,6.85-1.85,14.58,6.35,8.73,11.95-.61-.17-1.2-.39-1.68-.82"/>
    </g>
    <g>
      <path class="cls-2" d="M600.47,187.51c.52-.63.74-1.34.57-2.15-.52-2.47-10.45-16.84-12.66-19.9-6.39-8.86-13.56-17.32-21.59-24.71l-25.26,21.63-6.1-5.39,27.33-24.25c1.52-1.16,3.65-1.59,5.49-1.03,2.44.74,22.32,23.58,25.12,27.24,3.39,4.42,18.75,26.62,18.73,30.66,0,.7-.11,1.26-.43,1.89-1.7,3.42-28.45,14.47-32.77,18.87-1.52.25-5.11-5.35-4.7-6.96.49-1.91,22.92-13.68,26.27-15.9"/>
      <path class="cls-2" d="M545.59,451.46c5.56,4.72,11.23,10.17,16.84,14.65,4.3,3.43,5.17,5.02,9.84.78,7.31-6.65,22.86-28.04,27.53-36.95,1.42-2.7,2.67-3.94.09-6.62l-25.41-16.36,2.77-7.54,34.76,20.93c1.24,3.89-11.87,23.34-14.8,27.48-8.32,11.76-18.01,23.23-29.35,32.16-2.02.85-6.51-3.02-8.13-4.37-7.8-6.54-15.24-15.02-22.74-22.01l5.07-4.85c2.37-.62,2.46,1.79,3.53,2.69"/>
      <path class="cls-2" d="M232.6,173.25c2.36-3.8-4.88-9.58-8.46-9.65-3.22,2.26-13.81,14.42-11.75,17.96l13.48,8.93-3.08,6.34c-1.02.32-1.87-.16-2.76-.54-3.67-1.57-12.37-7.26-16.09-9.71-1.35-.89-3-1.63-3.76-3.13-.67-2.28,3.03-6.22,4.49-8.16,2.2-2.93,19.24-23.62,20.82-23.75l18.42,16.87-13.2,15.45-9.91-7.08,2.51-4.14c3.13,1.51,5.97,2.22,9.3.6"/>
      <path class="cls-2" d="M210.39,419.35c3.35,2.17,11.3,15.06,15.52,13.12,1.37-.63,3.73-4.31,5.86-4.86l4.5,4.43-.05,1.52c-2.52,1.89-10.14,8.7-12.93,8.41-1.79-.18-8.69-10.22-11.02-11.85l-1.02-.27-2.42,2.24-.06,1.51c5.16,5.6,9.8,12.91,16.03,17.18,2.94-.02,12.41-10.75,15.53-11.6.55-.15,1-.36,1.53.04,1.52,1.12,1.98,2.43,1.15,4.2-.85,1.82-16.69,15.49-18.4,15.84-1.82.37-7.03-6.11-8.52-7.88-2.41-2.85-15.54-19.3-15.86-21.39-.35-2.26,7.78-9.41,10.16-10.64"/>
      <path class="cls-2" d="M414.09,508.65l-17.45,39.45-20.48-40.2,11.25.88c.88,2.4,6.31,20.03,7.34,20.37.62.2,1.48.2,1.97-.46,2.71-3.73,2.89-15.56,6.76-20.03h10.62Z"/>
      <path class="cls-2" d="M395.05,81.53l-7.2,21.26-11.01,1.5,18.57-37.93c7.35,11.64,12.68,24.56,18.27,37.14l-.8,1.52c-2.63-1.9-7.36.66-9.54-1.82-3.09-3.5-3.15-17.98-8.29-21.67"/>
      <path class="cls-2" d="M601.44,293.15c1.15-1.16,19.83,6.91,22.52,8.21.87.42,7.87,3.64,7.07,4.68l-29.58,10.64v-23.52Z"/>
      <path class="cls-2" d="M190.25,293.23v23.52s-29.59-11-29.59-11c-.34-1.58.67-1.03,1.5-1.5,1.75-1,3.74-1.96,5.58-2.8,6.96-3.19,15.21-6.33,22.51-8.22"/>
      <polygon class="cls-2" points="206.19 307.64 205.81 316.75 198.6 320.54 197.83 307.64 206.19 307.64"/>
      <path class="cls-2" d="M592.32,288.6l.77,11.38h-8.35s.37-9.12.37-9.12c.62-1.04,6.79-2.64,7.21-2.26"/>
      <polygon class="cls-2" points="593.09 307.57 593.1 319.71 585.46 316.97 585.5 307.57 593.09 307.57"/>
      <polygon class="cls-2" points="206.87 291.06 206.19 300.06 198.59 300.06 199.36 288.68 206.87 291.06"/>
      <path class="cls-2" d="M401.95,492.72c-4.43,11.78-8.28,11.43-12.9,0h12.9Z"/>
      <path class="cls-2" d="M397.89,113.6c.44.43,3.49,7.05,3.22,7.38l-10.61-.76c.59-2.89,3.7-10.23,7.39-6.62"/>
      <path class="cls-2" d="M217.44,203.06c.68,1.15-2.72,8.34-4.49,7.92l-32.09-18.01c-.84-.58-2.02-1.13-1.9-2.4.22-2.36,8.31-14.96,10.18-17.91,9.73-15.3,21.3-30.37,35.59-41.54,11.4,6.95,21.44,16.57,30,26.67l-4.96,4.9c-3.67-3.15-21.69-22.01-25.05-21.75-13.12,13.8-25.97,28.37-34.26,45.71l26.98,16.39Z"/>
      <path class="cls-2" d="M215.29,399.44c.45,2.93,3.84,5.75,1.59,8.79-3.65,2.74-25.75,14.53-26.52,17.54-.58,2.27,8.74,14.54,10.66,17.18,5.38,7.36,11.89,15.47,18.06,22.15,1.61,1.74,4.99,2.48,3.82,4.9,2.46,1.46,10.17-7.75,12.13-9.49,2.52-2.24,11.87-11.07,13.91-11.96,1.72-.75,4.76,2.95,4.91,4.49.11,1.21-.93,2.48-1.71,3.33-4.62,5.04-17.91,17.91-23.22,21.54-7.22,4.93-7.89-.73-11.33-4.5-2.38-2.61-5.58-4.54-7.62-6.79-5.16-5.67-31.37-39.33-30.82-44.81l36.14-22.37Z"/>
      <path class="cls-2" d="M589.22,433.39c-3.41,1.08-6.23-3.01-9.43-.69l-18.91,22.04-10.9-11.14c-.46-1.76,6.25-9.96,7.85-11.61,3.26-3.36,5.13-4.85,8.68-.37-1.98,2.6-8.07,8.99-7.57,12.11l4.61,1.59,15.92-25.46,11.8,8.36-2.05,5.18Z"/>
      <path class="cls-2" d="M547.66,167.35l18.58-16c1.7-.3,7.43,7.81,7.74,9.62,1.16,6.95-5.11,3.66-8.59,3.94-7.48.61-10.32,10.41-11.4,10.66-2.06-.64-7.53-6.15-6.32-8.23"/>
      <path class="cls-2" d="M580.74,176.51c4.32-.82,7.19,0,9.44,3.83.56.96,1.61,2.34,1.04,3.54-.56,1.16-13.32,8.38-15.57,9.52-3.75,1.9-8.29,5.17-8.72-1.81-.27-4.46,3.74-4.21,6.44-6.53,3.78-3.25,2.45-7.63,7.37-8.56"/>
      <path class="cls-2" d="M583.26,441.09c1.04,1.34-6.19,10.8-7.6,12.5-.86,1.03-8.5,9.22-9.07,8.75-.26-1.44-.84-2.01-.23-3.56.56-1.41,13.54-17.63,14.62-18.07.4-.16,2.22.29,2.29.38"/>
      <path class="cls-2" d="M566.32,171.13c8.35-1.66,3.58,13.9-4.93,9.95-5.36-2.49,2.17-9.4,4.93-9.95"/>
      <path class="cls-2" d="M221.18,413.98c3.92-.77,4.4,5,6.95,7.2.21,1.31-3.45,3.13-4.24,3.2-.91.08-9.33-9.1-2.71-10.4"/>
      <path class="cls-2" d="M570.77,413.79c6.61,2.82,2.1,7.46-2.32,9.69l-1.53-1.37c-1.3-1.41,3.16-8.15,3.85-8.32"/>
    </g>
  </g>
  <text class="cls-1" transform="translate(238.41 332.97)"><tspan x="0" y="0">Morph</tspan></text>
</svg>